<svg data-v-423bf9ae="" xmlns="http://www.w3.org/2000/svg" viewBox="0 0 704 90" class="iconLeft"><!----><!----><!----><g data-v-423bf9ae="" id="c2a48a82-a0f9-477f-a500-c0f15c8b7caa" fill="#E00200" transform="matrix(5.7526364568010235,0,0,5.7526364568010235,84.01401308209802,11.145735325679823)"><path d="M3.18 0.67L3.18 0.67L3.18 0.67Q3.85 0.67 4.44 0.92L4.44 0.92L4.44 0.92Q5.03 1.18 5.47 1.62L5.47 1.62L5.47 1.62Q5.91 2.06 6.16 2.65L6.16 2.65L6.16 2.65Q6.41 3.23 6.41 3.91L6.41 3.91L6.41 3.91Q6.41 4.58 6.16 5.17L6.16 5.17L6.16 5.17Q5.91 5.75 5.47 6.20L5.47 6.20L5.47 6.20Q5.03 6.64 4.44 6.89L4.44 6.89L4.44 6.89Q3.85 7.14 3.18 7.14L3.18 7.14L3.16 7.14L2.35 7.14L2.35 11.09L0 11.09L0 0.67L3.16 0.67L3.18 0.67ZM15.02 6.94L15.02 6.94L15.02 6.94Q15.01 7.77 14.71 8.51L14.71 8.51L14.71 8.51Q14.42 9.25 13.86 9.84L13.86 9.84L13.86 9.84Q13.29 10.46 12.55 10.78L12.55 10.78L12.55 10.78Q11.82 11.10 10.99 11.10L10.99 11.10L10.98 11.10L10.98 11.10Q10.16 11.10 9.43 10.78L9.43 10.78L9.43 10.78Q8.69 10.46 8.11 9.86L8.11 9.86L8.11 9.86Q7.56 9.27 7.26 8.53L7.26 8.53L7.26 8.53Q6.96 7.78 6.94 6.94L6.94 6.94L6.94 4.51L6.94 4.51Q7.01 3.77 7.32 3.11L7.32 3.11L7.32 3.11Q7.62 2.45 8.11 1.92L8.11 1.92L8.11 1.92Q8.69 1.32 9.42 0.99L9.42 0.99L9.42 0.99Q10.15 0.67 10.98 0.67L10.98 0.67L10.99 0.67L10.99 0.67Q11.82 0.67 12.55 0.99L12.55 0.99L12.55 0.99Q13.29 1.32 13.86 1.92L13.86 1.92L13.86 1.92Q14.36 2.45 14.66 3.11L14.66 3.11L14.66 3.11Q14.95 3.77 15.02 4.51L15.02 4.51L15.02 4.82L15.02 6.10L15.02 6.94ZM23.87 5.91L23.87 6.90L23.87 6.90Q23.87 6.97 23.87 7.04L23.87 7.04L23.87 7.04Q23.87 7.11 23.86 7.18L23.86 7.18L23.86 11.09L21.69 11.09L21.69 10.56L21.69 10.56Q21.27 10.81 20.80 10.96L20.80 10.96L20.80 10.96Q20.33 11.10 19.84 11.10L19.84 11.10L19.82 11.10L19.82 11.10Q19.00 11.10 18.26 10.78L18.26 10.78L18.26 10.78Q17.53 10.46 16.95 9.86L16.95 9.86L16.95 9.86Q16.41 9.27 16.11 8.53L16.11 8.53L16.11 8.53Q15.81 7.80 15.79 6.99L15.79 6.99L15.79 4.83L15.79 4.83Q15.79 3.99 16.09 3.25L16.09 3.25L16.09 3.25Q16.39 2.51 16.95 1.92L16.95 1.92L16.95 1.92Q17.53 1.32 18.26 0.99L18.26 0.99L18.26 0.99Q19.00 0.67 19.82 0.67L19.82 0.67L19.84 0.67L19.84 0.67Q20.65 0.67 21.38 0.99L21.38 0.99L21.38 0.99Q22.12 1.32 22.71 1.92L22.71 1.92L22.71 1.92Q23.27 2.52 23.57 3.28L23.57 3.28L23.57 3.28Q23.87 4.03 23.87 4.87L23.87 4.87L21.52 4.87L21.52 4.87Q21.52 4.49 21.38 4.16L21.38 4.16L21.38 4.16Q21.25 3.82 21.02 3.57L21.02 3.57L21.02 3.57Q20.79 3.32 20.48 3.17L20.48 3.17L20.48 3.17Q20.17 3.02 19.82 3.02L19.82 3.02L19.82 3.02Q19.47 3.02 19.17 3.17L19.17 3.17L19.17 3.17Q18.87 3.32 18.64 3.57L18.64 3.57L18.64 3.57Q18.41 3.82 18.28 4.16L18.28 4.16L18.28 4.16Q18.14 4.49 18.14 4.87L18.14 4.87L18.14 6.90L18.14 6.90Q18.14 7.28 18.28 7.62L18.28 7.62L18.28 7.62Q18.41 7.95 18.64 8.20L18.64 8.20L18.64 8.20Q18.87 8.46 19.17 8.60L19.17 8.60L19.17 8.60Q19.47 8.75 19.82 8.75L19.82 8.75L19.82 8.75Q20.23 8.75 20.56 8.57L20.56 8.57L20.56 8.57Q20.89 8.39 21.13 8.08L21.13 8.08L19.81 8.08L19.81 5.91L23.87 5.91ZM33.07 6.94L33.07 6.94L33.07 6.94Q33.05 7.77 32.76 8.51L32.76 8.51L32.76 8.51Q32.47 9.25 31.91 9.84L31.91 9.84L31.91 9.84Q31.33 10.46 30.60 10.78L30.60 10.78L30.60 10.78Q29.86 11.10 29.04 11.10L29.04 11.10L29.02 11.10L29.02 11.10Q28.21 11.10 27.47 10.78L27.47 10.78L27.47 10.78Q26.74 10.46 26.15 9.86L26.15 9.86L26.15 9.86Q25.61 9.27 25.30 8.53L25.30 8.53L25.30 8.53Q25.00 7.78 24.99 6.94L24.99 6.94L24.99 4.51L24.99 4.51Q25.06 3.77 25.36 3.11L25.36 3.11L25.36 3.11Q25.66 2.45 26.15 1.92L26.15 1.92L26.15 1.92Q26.74 1.32 27.47 0.99L27.47 0.99L27.47 0.99Q28.20 0.67 29.02 0.67L29.02 0.67L29.04 0.67L29.04 0.67Q29.86 0.67 30.60 0.99L30.60 0.99L30.60 0.99Q31.33 1.32 31.91 1.92L31.91 1.92L31.91 1.92Q32.41 2.45 32.70 3.11L32.70 3.11L32.70 3.11Q33.00 3.77 33.07 4.51L33.07 4.51L33.07 4.82L33.07 6.10L33.07 6.94ZM40.91 0.67L40.91 0.67L40.91 3.02L38.54 3.02L38.54 11.09L36.19 11.09L36.19 3.02L33.82 3.02L33.82 0.67L40.91 0.67ZM49.73 6.94L49.73 6.94L49.73 6.94Q49.71 7.77 49.42 8.51L49.42 8.51L49.42 8.51Q49.13 9.25 48.57 9.84L48.57 9.84L48.57 9.84Q47.99 10.46 47.26 10.78L47.26 10.78L47.26 10.78Q46.52 11.10 45.70 11.10L45.70 11.10L45.68 11.10L45.68 11.10Q44.87 11.10 44.13 10.78L44.13 10.78L44.13 10.78Q43.40 10.46 42.81 9.86L42.81 9.86L42.81 9.86Q42.27 9.27 41.96 8.53L41.96 8.53L41.96 8.53Q41.66 7.78 41.65 6.94L41.65 6.94L41.65 4.51L41.65 4.51Q41.72 3.77 42.02 3.11L42.02 3.11L42.02 3.11Q42.32 2.45 42.81 1.92L42.81 1.92L42.81 1.92Q43.40 1.32 44.13 0.99L44.13 0.99L44.13 0.99Q44.86 0.67 45.68 0.67L45.68 0.67L45.70 0.67L45.70 0.67Q46.52 0.67 47.26 0.99L47.26 0.99L47.26 0.99Q47.99 1.32 48.57 1.92L48.57 1.92L48.57 1.92Q49.07 2.45 49.36 3.11L49.36 3.11L49.36 3.11Q49.66 3.77 49.73 4.51L49.73 4.51L49.73 4.82L49.73 6.10L49.73 6.94ZM60.89 0.67L60.89 0.67L63.24 0.67L60.70 11.09L58.31 11.09L56.94 5.43L55.57 11.09L53.17 11.09L50.64 0.67L52.99 0.67L54.38 6.33L55.75 0.67L58.14 0.67L59.51 6.33L60.89 0.67ZM66.44 0.67L66.44 0.67L66.44 11.09L64.09 11.09L64.09 0.67L66.44 0.67ZM73.82 3.02L73.82 3.02L69.79 3.02L69.79 4.70L72.76 4.70L72.76 7.06L69.79 7.06L69.79 8.74L73.82 8.74L73.82 11.09L67.44 11.09L67.44 0.67L73.82 0.67L73.82 3.02ZM84.08 11.09L84.08 11.09L81.75 11.09L81.75 8.74L84.08 8.74L84.08 11.09ZM90.29 0.67L90.29 0.67L92.64 0.67L92.64 11.09L90.26 11.09L87.32 5.26L87.32 11.09L84.97 11.09L84.97 0.67L87.36 0.67L90.29 6.48L90.29 0.67ZM99.79 3.02L99.79 3.02L95.76 3.02L95.76 4.70L98.73 4.70L98.73 7.06L95.76 7.06L95.76 8.74L99.79 8.74L99.79 11.09L93.41 11.09L93.41 0.67L99.79 0.67L99.79 3.02ZM107.67 0.67L107.67 0.67L107.67 3.02L105.31 3.02L105.31 11.09L102.96 11.09L102.96 3.02L100.59 3.02L100.59 0.67L107.67 0.67Z"></path></g><!----><g data-v-423bf9ae="" id="de8b8cc0-daca-4015-85e0-0241c9366971" transform="matrix(1,0,0,1,-17.007003784179688,-5)" stroke="none" fill="#E00200"><path d="M50 5C32.323 5 17.994 19.33 17.993 37.007 17.993 54.683 50.974 95 50.974 95s31.033-40.317 31.033-57.993C82.007 19.33 67.677 5 50 5zm0 6.497a25.51 25.51 0 0 1 25.51 25.51A25.51 25.51 0 0 1 50 62.517a25.51 25.51 0 0 1-25.51-25.51A25.51 25.51 0 0 1 50 11.497z"></path><path style="line-height:normal;text-indent:0;text-align:start;text-decoration-line:none;text-decoration-style:solid;text-decoration-color:#000;text-transform:none;block-progression:tb;isolation:auto;mix-blend-mode:normal" d="M49.95 22.765a9.773 9.773 0 0 0-3.302.595c-3.624 1.325-6.092 4.695-6.131 8.495l3.528.037c.024-2.301 1.503-4.373 3.816-5.219 2.313-.845 4.936-.234 6.576 1.499 1.64 1.733 1.99 4.177.92 6.255-.874 1.698-2.584 2.86-4.53 3.118H49.04v6.333h3.528v-3.094c2.521-.685 4.702-2.365 5.926-4.741 1.746-3.39 1.139-7.514-1.494-10.296-1.852-1.957-4.425-2.997-7.05-2.982zM49.04 47.126v4.123h3.528v-4.123H49.04z" color="#000" font-weight="400" font-family="sans-serif" white-space="normal" overflow="visible"></path></g><!----></svg>