<svg data-v-fde0c5aa="" xmlns="http://www.w3.org/2000/svg" viewBox="0 0 300 300" class="icon"><!----><defs data-v-fde0c5aa=""><!----></defs><rect data-v-fde0c5aa="" fill="#FFEC69" x="0" y="0" width="300px" height="300px" class="logo-background-square"></rect><!----><defs data-v-fde0c5aa=""><!----></defs><g data-v-fde0c5aa="" id="dc6ba277-e13c-46b3-abad-8f3183f58212" fill="#E00200" stroke="none" transform="matrix(2.4444444444444446,0,0,2.4444444444444446,27.777768452962228,27.777777777777764)"><path d="M50 5C32.323 5 17.994 19.33 17.993 37.007 17.993 54.683 50.974 95 50.974 95s31.033-40.317 31.033-57.993C82.007 19.33 67.677 5 50 5zm0 6.497a25.51 25.51 0 0 1 25.51 25.51A25.51 25.51 0 0 1 50 62.517a25.51 25.51 0 0 1-25.51-25.51A25.51 25.51 0 0 1 50 11.497z"></path><path style="line-height:normal;text-indent:0;text-align:start;text-decoration-line:none;text-decoration-style:solid;text-decoration-color:#000;text-transform:none;block-progression:tb;isolation:auto;mix-blend-mode:normal" d="M49.95 22.765a9.773 9.773 0 0 0-3.302.595c-3.624 1.325-6.092 4.695-6.131 8.495l3.528.037c.024-2.301 1.503-4.373 3.816-5.219 2.313-.845 4.936-.234 6.576 1.499 1.64 1.733 1.99 4.177.92 6.255-.874 1.698-2.584 2.86-4.53 3.118H49.04v6.333h3.528v-3.094c2.521-.685 4.702-2.365 5.926-4.741 1.746-3.39 1.139-7.514-1.494-10.296-1.852-1.957-4.425-2.997-7.05-2.982zM49.04 47.126v4.123h3.528v-4.123H49.04z" color="#000" font-weight="400" font-family="sans-serif" white-space="normal" overflow="visible"></path></g><!----></svg>